<?xml version="1.0" standalone="no"?>
<!DOCTYPE svg PUBLIC "-//W3C//DTD SVG 20010904//EN"
 "http://www.w3.org/TR/2001/REC-SVG-20010904/DTD/svg10.dtd">
<svg version="1.0" xmlns="http://www.w3.org/2000/svg"
 width="384.000000pt" height="280.000000pt" viewBox="0 0 384.000000 280.000000"
 preserveAspectRatio="xMidYMid meet">
<metadata>
Created by potrace 1.15, written by Peter Selinger 2001-2017
</metadata>
<g transform="translate(0.000000,280.000000) scale(0.100000,-0.100000)"
fill="#000000" stroke="none">
<path d="M1875 2774 c-93 -28 -200 -77 -278 -127 l-56 -36 -238 -21 c-316 -27
-364 -41 -383 -111 -8 -29 -8 -55 0 -92 11 -56 43 -117 60 -117 5 0 10 -10 10
-22 0 -14 25 -47 67 -90 l67 -68 -529 0 c-346 0 -525 -4 -515 -10 11 -7 2 -10
-32 -10 -47 0 -48 -1 -48 -30 0 -16 3 -30 8 -30 9 0 1286 -162 1289 -164 0 0
-7 -39 -17 -86 -22 -99 -40 -280 -40 -394 0 -76 1 -78 18 -63 18 16 19 13 30
-86 27 -229 109 -441 238 -618 54 -73 172 -199 187 -199 6 0 18 7 28 16 17 15
24 12 111 -54 110 -84 230 -158 348 -213 92 -44 400 -152 409 -144 2 3 -20 30
-50 61 -46 47 -50 54 -26 45 58 -22 58 -11 -1 56 -109 125 -176 248 -205 374
-20 91 -11 102 50 66 122 -72 253 -113 391 -124 94 -7 105 -2 228 97 47 38 92
70 99 70 18 0 75 49 75 63 0 7 9 18 20 24 10 7 22 28 25 46 4 19 31 67 61 107
47 62 55 78 52 109 -3 32 1 39 38 62 22 14 67 56 100 94 32 37 88 86 124 109
36 23 84 65 106 92 50 59 144 226 144 255 0 33 -113 170 -184 222 -36 26 -96
82 -133 124 -37 42 -115 113 -173 159 -95 76 -108 91 -140 156 -33 65 -43 76
-128 138 -168 120 -181 126 -372 169 -132 29 -207 52 -305 94 -91 39 -177 66
-285 91 -85 20 -157 36 -160 35 -3 0 -41 -11 -85 -25z m248 -63 c141 -32 336
-108 252 -97 -22 2 -62 8 -90 11 -151 19 105 -47 315 -80 230 -37 260 -48 390
-136 66 -44 131 -94 145 -111 25 -29 26 -37 23 -115 -2 -46 -1 -83 0 -83 9 0
41 46 42 58 0 14 175 -125 230 -183 33 -35 34 -37 10 -30 -14 4 -49 20 -79 36
-61 33 -92 35 -170 14 -64 -17 -94 -38 -35 -24 61 14 126 10 163 -10 l34 -18
-68 -6 c-93 -9 -109 -27 -24 -27 78 0 108 -14 52 -25 -42 -8 -108 -33 -102
-39 2 -2 33 2 69 10 36 7 90 13 120 13 64 0 59 -3 -75 -49 -72 -25 -83 -32
-112 -75 -46 -67 -41 -79 10 -22 40 46 46 49 114 59 84 13 122 5 193 -40 40
-26 48 -37 73 -108 41 -117 67 -160 97 -156 23 4 23 4 6 -24 -27 -41 -64 -70
-130 -104 -73 -37 -146 -40 -256 -9 -126 34 -204 75 -229 119 -11 21 -21 41
-21 45 0 5 64 5 143 1 329 -15 334 -16 287 -7 -25 5 -128 15 -229 22 -173 12
-182 14 -163 29 19 16 33 15 209 -11 223 -33 222 -33 230 -13 8 22 -51 80
-114 110 -82 41 -81 24 2 -25 41 -25 82 -53 91 -62 25 -27 -185 60 -214 89
-20 21 -30 24 -71 19 -26 -3 -65 -2 -87 3 -84 17 -105 19 -99 11 3 -5 23 -12
45 -16 47 -8 59 -20 27 -29 -21 -7 -21 -8 -3 -15 36 -14 -21 -21 -98 -11 -101
12 -312 24 -305 16 3 -3 77 -13 165 -21 87 -9 164 -17 169 -19 6 -2 -8 -12
-30 -23 -34 -17 -69 -21 -220 -27 -99 -4 -202 -11 -230 -16 -30 -4 34 -6 155
-3 l205 5 -49 -30 c-79 -49 -137 -103 -156 -146 -58 -132 -17 -367 81 -465 35
-36 101 -70 133 -71 19 0 19 1 -1 23 -11 12 -29 36 -39 52 -18 30 -18 30 1 14
44 -36 47 -30 9 16 -64 78 -85 120 -91 182 -6 53 -5 57 10 44 11 -8 15 -22 11
-36 -4 -16 1 -26 21 -39 21 -14 25 -24 23 -49 -3 -28 2 -35 47 -64 27 -18 54
-34 59 -36 5 -2 1 -17 -8 -34 -21 -41 -21 -40 17 -63 34 -21 96 -27 113 -10
14 14 54 1 47 -16 -2 -7 -21 -18 -41 -25 -21 -6 -57 -31 -82 -54 -79 -72 -93
-79 -163 -71 -134 13 -218 29 -203 38 29 16 19 55 -24 89 -22 18 -54 57 -71
88 -40 71 -158 187 -227 224 -29 16 -55 27 -58 24 -3 -2 16 -23 43 -46 26 -23
61 -59 79 -79 l31 -37 -74 37 c-82 41 -108 46 -133 23 -14 -13 -27 -10 -116
30 -54 24 -133 53 -174 63 -97 25 -190 35 -190 22 0 -5 9 -10 19 -10 66 0 309
-116 388 -185 85 -75 98 -104 95 -211 -5 -144 38 -297 121 -427 18 -29 37 -58
41 -65 11 -18 -94 30 -150 69 -78 54 -224 178 -336 287 l-107 105 -32 -14
c-32 -13 -33 -12 -77 37 -52 57 -122 199 -145 294 -39 160 -46 414 -17 584 5
33 8 61 6 63 -1 2 -17 -2 -35 -8 -18 -6 -34 -10 -35 -8 -3 4 32 151 38 156 1
2 854 -21 1084 -30 50 -1 92 0 92 3 0 3 -41 39 -91 80 -89 74 -89 75 -62 82
15 4 102 9 191 10 138 1 169 4 199 20 20 11 43 16 55 12 20 -6 20 -6 2 25 -22
37 -28 38 -66 6 -41 -35 -61 -32 -83 13 -11 20 -21 39 -22 42 -4 7 99 31 105
25 3 -3 0 -17 -7 -32 l-11 -28 24 27 c16 18 27 23 34 16 7 -7 29 -6 68 2 46
10 55 14 39 21 -11 4 -32 8 -46 8 -34 1 -41 19 -33 84 4 37 2 62 -9 87 l-16
35 6 -52 c6 -56 -6 -70 -24 -30 -10 21 -163 135 -163 121 0 -3 19 -24 43 -45
l42 -38 -30 -1 c-52 -1 -1210 32 -1213 35 -1 1 7 24 18 51 12 26 30 79 40 117
24 87 8 85 -40 -6 l-35 -67 -50 6 c-62 7 -199 38 -284 64 -80 25 -92 25 -121
-2 l-24 -22 40 -9 c87 -19 359 -98 368 -107 5 -5 5 -24 -1 -49 -6 -22 -7 -58
-3 -81 7 -40 20 -66 20 -41 0 21 53 121 64 121 6 0 85 -36 176 -80 l164 -80
-290 0 c-278 0 -290 1 -302 20 -8 13 -23 20 -41 20 -25 0 -30 4 -33 28 -3 23
-8 27 -38 30 -27 3 -48 16 -91 59 -53 52 -56 57 -46 83 13 34 -3 60 -38 60
-17 0 -26 9 -34 31 -13 37 -14 86 -3 93 4 2 161 19 347 36 187 17 354 34 370
38 48 12 38 36 -18 42 l-48 5 62 34 c69 38 188 83 205 77 5 -2 72 -18 147 -35z
m1496 -916 c61 -47 90 -77 141 -145 34 -45 34 -45 4 -17 -25 22 -39 27 -82 27
-47 0 -52 2 -52 23 -1 32 -25 95 -46 118 -24 27 -29 17 -10 -20 l16 -31 -63
35 c-35 19 -72 35 -83 36 -12 0 -6 6 16 14 51 20 96 9 159 -40z"/>
</g>
</svg>
